# xmcd
#
# Track frame offsets: 
#        150
#        10537
#        22995
#        36222
#        55882
#        67867
#        76747
#        88950
#        100227
#        115745
#        126092
#        139552
#
# Disc length: 2052 seconds
#
# Revision: 0
# Processed by: cddbd v1.5.2PL0 Copyright (c) Steve Scherf et al.
# Submitted via: ExactAudioCopy v1.3
#
DISCID=8a08020c
DTITLE=The Bluegrass Strangers - Cuttin' The Grass
DYEAR=1999
DGENRE=Bluegrass
TTITLE0=Darling Say Won't You Be Mine
TTITLE1=Last Old Song
TTITLE2=Boss Of This House
TTITLE3=Shelly's Winter Love
TTITLE4=Kary Daley
TTITLE5=Ida Red
TTITLE6=Hobb
TTITLE7=Someones In Love With You
TTITLE8=House Of Too Much Trouble
TTITLE9=Down The Road
TTITLE10=It Takes One To Know One
TTITLE11=High Meadows
EXTD=
EXTT0=
EXTT1=
EXTT2=
EXTT3=
EXTT4=
EXTT5=
EXTT6=
EXTT7=
EXTT8=
EXTT9=
EXTT10=
EXTT11=
PLAYORDER=
